<svg id="Layer_1" data-name="Layer 1" xmlns="http://www.w3.org/2000/svg" viewBox="0 0 183 80"><defs><style>.cls-1{fill:#fff;}.cls-2{fill:#eeaa20;}</style></defs><title>logo</title><path class="cls-1" d="M23,26.74h7.35V54.37H23V51.45a14.46,14.46,0,0,1-4.32,2.78,12.69,12.69,0,0,1-4.69.85,13.4,13.4,0,0,1-9.81-4.15A14,14,0,0,1,0,40.61,14.35,14.35,0,0,1,4,30.12,13.12,13.12,0,0,1,13.74,26a13,13,0,0,1,4.95.94A13.57,13.57,0,0,1,23,29.79Zm-7.73,5.69A7.65,7.65,0,0,0,9.58,34.7a7.93,7.93,0,0,0-2.25,5.83,8,8,0,0,0,2.29,5.89,7.65,7.65,0,0,0,5.65,2.31A7.79,7.79,0,0,0,21,46.46a8,8,0,0,0,2.28-6A7.81,7.81,0,0,0,21,34.67,7.9,7.9,0,0,0,15.24,32.43Z"/><path class="cls-1" d="M36,26.74h6.3v3.48A7.53,7.53,0,0,1,45,27.1,6.85,6.85,0,0,1,48.75,26a7.22,7.22,0,0,1,3,.71l-2.29,6a5.28,5.28,0,0,0-2.13-.61,3.36,3.36,0,0,0-2.87,2q-1.17,2-1.17,7.77l0,1.35V54.37H36Z"/><path class="cls-1" d="M58.24,15.37a4.63,4.63,0,0,1,3.31,1.32,4.26,4.26,0,0,1,1.38,3.2A4.21,4.21,0,0,1,61.57,23a4.58,4.58,0,0,1-3.28,1.31A4.64,4.64,0,0,1,55,23a4.33,4.33,0,0,1-1.38-3.24,4.14,4.14,0,0,1,1.37-3.12A4.63,4.63,0,0,1,58.24,15.37ZM54.57,26.74h7.35V54.37H54.57Z"/><path class="cls-1" d="M67.35,26.74H89.78L76.62,48.5H89v5.87H65.34L78.56,32.61H67.35Z"/><path class="cls-1" d="M94.84,16.56h7.35V26.74h4.36v6h-4.36V54.37H94.84V32.71H91.07v-6h3.77Z"/><path class="cls-1" d="M155.84,26.74h7.35v2.83a17.76,17.76,0,0,1,4.53-2.76,11.52,11.52,0,0,1,4.15-.78,10.37,10.37,0,0,1,7.39,2.87q2.55,2.44,2.55,7.21V54.37h-7.27V42.27a28.84,28.84,0,0,0-.47-6.57,4.47,4.47,0,0,0-1.64-2.47,4.77,4.77,0,0,0-2.89-.85,5.6,5.6,0,0,0-3.83,1.41,7.4,7.4,0,0,0-2.22,3.89,29.66,29.66,0,0,0-.32,5.6V54.37h-7.35Z"/><path class="cls-1" d="M122.47,46.32A13.59,13.59,0,0,0,127,49V40.89a33.66,33.66,0,0,1-4.49.68Z"/><path class="cls-1" d="M129.48,49.61a12.76,12.76,0,0,0,4.49-.06V38.48a31.27,31.27,0,0,1-4.49,1.76Z"/><path class="cls-1" d="M136.48,37.13v11.7A13.62,13.62,0,0,0,141,46V33.66A27.14,27.14,0,0,1,136.48,37.13Z"/><path class="cls-2" d="M114.14,38.25c.6,0,1.29-.08,2-.15a15.49,15.49,0,0,1,7.59-15.44l.72,1.84.34.88.61-1.4.73-1.66.4-.92,1-2.29.35-.81-3.61-1.58-.25-.11-3.23-1.41,1,2.62A20.61,20.61,0,0,0,111,38.27,30.63,30.63,0,0,0,114.14,38.25Z"/><path class="cls-2" d="M129.6,18.74l-.89,2.1a15.17,15.17,0,0,1,10.5,1.73,15.71,15.71,0,0,1,1.61,1.06c.32-.41.69-.94,1.09-1.55a17,17,0,0,0,1.56-2.91q-.83-.58-1.72-1.09a20.52,20.52,0,0,0-14.61-2.19l3.07,1.4Z"/><path class="cls-2" d="M145.44,51.4a20.65,20.65,0,0,0,2.73-27.63,39.17,39.17,0,0,0,3.65-6.58l5,2.15L152.48,8.48l-10.86,4.31L146.79,15a33.89,33.89,0,0,1-1.67,4.36c-.12.26-.25.51-.38.77Q144,21.63,143.1,23c-.34.54-.69,1.07-1.06,1.6-.21.3-.42.59-.64.88s-.38.47-.57.71-.54.7-.83,1l-.53.61a35.15,35.15,0,0,1-3,2.93q-1.21,1.06-2.51,2c-.52.38-1,.77-1.57,1.12-.94.62-1.92,1.18-2.92,1.71a35.62,35.62,0,0,1-5.31,2.22c-.56.18-1.12.35-1.69.5-1,.26-1.92.5-2.9.68-.44.08-.88.15-1.32.22s-.81.15-1.22.2l-.62,0q-1,.11-2.07.15c-1.06,0-2.11,0-3.17,0h-.38a35.71,35.71,0,0,1-3.82-.39l0,.2a36,36,0,0,0,4.39.85c.09.42.17.85.29,1.27a20.55,20.55,0,0,0,9.74,12.49,20.78,20.78,0,0,0,6.08,2.29,20.41,20.41,0,0,0,4.1.42,20.9,20.9,0,0,0,13.91-5.38ZM118.65,40.59l1.14-.07c.9-.08,1.79-.2,2.69-.35a38.13,38.13,0,0,0,4.49-1c.85-.24,1.68-.54,2.51-.84a37.08,37.08,0,0,0,4.38-1.89l.11-.06c.86-.44,1.69-.93,2.51-1.43A38.29,38.29,0,0,0,141,31.69l.7-.6q.89-.78,1.73-1.61c.48-.48,1-1,1.43-1.46a15.6,15.6,0,0,1,1.69,3.91,15.46,15.46,0,0,1-10,18.85c-.26.09-.52.19-.79.26a15.78,15.78,0,0,1-1.72.36,15.24,15.24,0,0,1-7-.5,15.09,15.09,0,0,1-4.49-2.23,15.4,15.4,0,0,1-5.74-8C117.37,40.67,118,40.62,118.65,40.59Z"/><path class="cls-2" d="M42,68l-.8-2.17h-3L37.34,68H36l3-7.85h1.42l3,7.85Zm-1.14-3.27-.75-2.13q-.08-.21-.23-.67t-.2-.67a11.86,11.86,0,0,1-.43,1.44l-.72,2Z"/><path class="cls-2" d="M47.36,68.14a2.12,2.12,0,0,1-1.76-.8,4.33,4.33,0,0,1,0-4.52A2.14,2.14,0,0,1,47.38,62a2.09,2.09,0,0,1,1.81.86h.07a7.41,7.41,0,0,1-.09-1V59.71h1.29V68h-1l-.22-.78h-.06A2.06,2.06,0,0,1,47.36,68.14Zm.34-1a1.41,1.41,0,0,0,1.15-.44,2.26,2.26,0,0,0,.37-1.42V65.1a2.61,2.61,0,0,0-.37-1.59A1.39,1.39,0,0,0,47.7,63a1.18,1.18,0,0,0-1,.54,2.71,2.71,0,0,0-.37,1.53,2.65,2.65,0,0,0,.35,1.5A1.2,1.2,0,0,0,47.71,67.13Z"/><path class="cls-2" d="M54.73,68l-2.29-5.92h1.35L55,65.56A6.72,6.72,0,0,1,55.4,67h0a9.28,9.28,0,0,1,.38-1.4l1.23-3.44h1.36L56.11,68Z"/><path class="cls-2" d="M60.33,60.55a.69.69,0,0,1,.19-.52.74.74,0,0,1,.54-.18.73.73,0,0,1,.53.18.69.69,0,0,1,.19.52.68.68,0,0,1-.19.51.72.72,0,0,1-.53.18.74.74,0,0,1-.54-.18A.68.68,0,0,1,60.33,60.55ZM61.68,68H60.4V62.12h1.28Z"/><path class="cls-2" d="M68.64,66.35A1.54,1.54,0,0,1,68,67.68a3.12,3.12,0,0,1-1.84.46,4.42,4.42,0,0,1-1.94-.36V66.7a4.82,4.82,0,0,0,2,.48q1.18,0,1.18-.7a.55.55,0,0,0-.13-.37,1.55,1.55,0,0,0-.43-.31,7.44,7.44,0,0,0-.83-.36,3.87,3.87,0,0,1-1.41-.79,1.45,1.45,0,0,1-.37-1,1.34,1.34,0,0,1,.62-1.18,3,3,0,0,1,1.7-.42,4.89,4.89,0,0,1,2,.42l-.41.95a4.54,4.54,0,0,0-1.64-.4q-1,0-1,.57a.57.57,0,0,0,.26.47,5.86,5.86,0,0,0,1.15.53,5.31,5.31,0,0,1,1.08.52,1.43,1.43,0,0,1,.67,1.28Z"/><path class="cls-2" d="M76.44,65.07a3.19,3.19,0,0,1-.76,2.26,2.74,2.74,0,0,1-2.11.81,2.93,2.93,0,0,1-1.49-.37,2.49,2.49,0,0,1-1-1.08,3.6,3.6,0,0,1-.35-1.63,3.17,3.17,0,0,1,.75-2.25A2.75,2.75,0,0,1,73.61,62a2.68,2.68,0,0,1,2.07.83A3.16,3.16,0,0,1,76.44,65.07Zm-4.39,0q0,2,1.54,2t1.53-2q0-2-1.54-2a1.32,1.32,0,0,0-1.17.52A2.63,2.63,0,0,0,72.05,65.07Z"/><path class="cls-2" d="M82,62a3.15,3.15,0,0,1,.64.05l-.13,1.17a2.47,2.47,0,0,0-.57-.06,1.66,1.66,0,0,0-1.25.49,1.76,1.76,0,0,0-.48,1.28V68H79V62.12h1l.17,1h.07a2.36,2.36,0,0,1,.78-.84A1.89,1.89,0,0,1,82,62Z"/><path class="cls-2" d="M84,62.12h1.4l1.23,3.35a6.28,6.28,0,0,1,.37,1.35h0a5.56,5.56,0,0,1,.18-.71q.13-.42,1.38-4h1.38l-2.58,6.7A2.44,2.44,0,0,1,85,70.67a3.77,3.77,0,0,1-.83-.09v-1a3.06,3.06,0,0,0,.66.06,1.35,1.35,0,0,0,1.3-1.05l.22-.56Z"/><path class="cls-2" d="M109.34,68V60.21h1.3V68Z"/><path class="cls-2" d="M119,68H117.7V64.4a1.57,1.57,0,0,0-.28-1,1.1,1.1,0,0,0-.89-.34,1.43,1.43,0,0,0-1.19.47,2.56,2.56,0,0,0-.38,1.58V68h-1.28V62.12h1l.18.78h.07a1.77,1.77,0,0,1,.77-.65,2.64,2.64,0,0,1,1.11-.23A1.92,1.92,0,0,1,119,64.18Z"/><path class="cls-2" d="M124.08,67.13A3.17,3.17,0,0,0,125,67v.95a2.64,2.64,0,0,1-.55.15,3.85,3.85,0,0,1-.7.06A1.64,1.64,0,0,1,122,66.26V63.07h-.82v-.56l.88-.46.44-1.25h.79v1.32H125v1h-1.72v3.17a.88.88,0,0,0,.23.67A.85.85,0,0,0,124.08,67.13Z"/><path class="cls-2" d="M129.93,68.14a3,3,0,0,1-2.2-.81,3,3,0,0,1-.79-2.22,3.31,3.31,0,0,1,.74-2.28,2.56,2.56,0,0,1,2-.83,2.51,2.51,0,0,1,1.89.71,2.69,2.69,0,0,1,.69,2v.68h-4a1.92,1.92,0,0,0,.47,1.32,1.67,1.67,0,0,0,1.26.46,4.74,4.74,0,0,0,1-.1,5.28,5.28,0,0,0,1-.33v1a4,4,0,0,1-.95.31A5.94,5.94,0,0,1,129.93,68.14ZM129.7,63a1.3,1.3,0,0,0-1,.38,1.79,1.79,0,0,0-.44,1.11H131a1.62,1.62,0,0,0-.36-1.11A1.24,1.24,0,0,0,129.7,63Z"/><path class="cls-2" d="M136.08,68H134.8V59.71h1.28Z"/><path class="cls-2" d="M140.27,68H139V59.71h1.28Z"/><path class="cls-2" d="M143.09,60.55a.69.69,0,0,1,.19-.52.74.74,0,0,1,.54-.18.72.72,0,0,1,.53.18.69.69,0,0,1,.19.52.68.68,0,0,1-.19.51.72.72,0,0,1-.53.18.73.73,0,0,1-.54-.18A.68.68,0,0,1,143.09,60.55ZM144.45,68h-1.28V62.12h1.28Z"/><path class="cls-2" d="M152.45,62.12v.69l-1,.19a1.63,1.63,0,0,1,.23.46,1.79,1.79,0,0,1,.09.58,1.76,1.76,0,0,1-.64,1.44,2.73,2.73,0,0,1-1.77.52,2.91,2.91,0,0,1-.52,0,.71.71,0,0,0-.41.59.33.33,0,0,0,.19.3,1.7,1.7,0,0,0,.71.1h1.05a2.37,2.37,0,0,1,1.52.42,1.46,1.46,0,0,1,.52,1.2,1.74,1.74,0,0,1-.85,1.55,4.52,4.52,0,0,1-2.44.55,3.42,3.42,0,0,1-1.88-.43,1.38,1.38,0,0,1-.65-1.22,1.28,1.28,0,0,1,.35-.92,1.89,1.89,0,0,1,1-.52,1,1,0,0,1-.42-.34.88.88,0,0,1,0-1.06,2.2,2.2,0,0,1,.57-.45,1.67,1.67,0,0,1-.76-.64,2.07,2.07,0,0,1,.33-2.54A2.63,2.63,0,0,1,149.4,62a4.43,4.43,0,0,1,.54,0l.42.07ZM147.71,69a.69.69,0,0,0,.37.63,2.09,2.09,0,0,0,1,.22,3.22,3.22,0,0,0,1.56-.29.88.88,0,0,0,.51-.78.58.58,0,0,0-.28-.55,2.29,2.29,0,0,0-1-.16h-1a1.38,1.38,0,0,0-.87.25A.83.83,0,0,0,147.71,69Zm.55-4.92a1.18,1.18,0,0,0,.29.86,1.11,1.11,0,0,0,.84.3q1.11,0,1.11-1.17a1.31,1.31,0,0,0-.28-.89,1.06,1.06,0,0,0-.84-.31,1.09,1.09,0,0,0-.84.31A1.29,1.29,0,0,0,148.26,64Z"/><path class="cls-2" d="M157.27,68.14a3,3,0,0,1-2.2-.81,3,3,0,0,1-.79-2.22,3.31,3.31,0,0,1,.74-2.28,2.56,2.56,0,0,1,2-.83,2.51,2.51,0,0,1,1.89.71,2.69,2.69,0,0,1,.69,2v.68h-4a1.92,1.92,0,0,0,.47,1.32,1.67,1.67,0,0,0,1.26.46,4.74,4.74,0,0,0,1-.1,5.28,5.28,0,0,0,1-.33v1a4,4,0,0,1-.95.31A5.94,5.94,0,0,1,157.27,68.14ZM157,63a1.3,1.3,0,0,0-1,.38,1.79,1.79,0,0,0-.44,1.11h2.74a1.62,1.62,0,0,0-.36-1.11A1.24,1.24,0,0,0,157,63Z"/><path class="cls-2" d="M167.44,68h-1.29V64.4a1.57,1.57,0,0,0-.28-1A1.1,1.1,0,0,0,165,63a1.43,1.43,0,0,0-1.19.47,2.56,2.56,0,0,0-.38,1.58V68h-1.28V62.12h1l.18.78h.07a1.77,1.77,0,0,1,.77-.65,2.64,2.64,0,0,1,1.11-.23,1.92,1.92,0,0,1,2.17,2.17Z"/><path class="cls-2" d="M172.73,68.14a2.67,2.67,0,0,1-2.08-.78,3.91,3.91,0,0,1,0-4.54,2.79,2.79,0,0,1,2.15-.8,4.09,4.09,0,0,1,1.72.35l-.39,1a4,4,0,0,0-1.34-.31q-1.56,0-1.56,2a2.41,2.41,0,0,0,.39,1.5,1.36,1.36,0,0,0,1.14.5,3.32,3.32,0,0,0,1.62-.42v1.1a2.55,2.55,0,0,1-.73.28A4.49,4.49,0,0,1,172.73,68.14Z"/><path class="cls-2" d="M179.53,68.14a3,3,0,0,1-2.2-.81,3,3,0,0,1-.79-2.22,3.31,3.31,0,0,1,.74-2.28,2.56,2.56,0,0,1,2-.83,2.51,2.51,0,0,1,1.89.71,2.69,2.69,0,0,1,.69,2v.68h-4a1.92,1.92,0,0,0,.47,1.32,1.67,1.67,0,0,0,1.26.46,4.74,4.74,0,0,0,1-.1,5.28,5.28,0,0,0,1-.33v1a4,4,0,0,1-.95.31A5.94,5.94,0,0,1,179.53,68.14ZM179.29,63a1.3,1.3,0,0,0-1,.38,1.79,1.79,0,0,0-.44,1.11h2.74a1.62,1.62,0,0,0-.36-1.11A1.24,1.24,0,0,0,179.29,63Z"/><path class="cls-2" d="M98.13,63.17h0l0,0Z"/><path class="cls-2" d="M101.59,66.48A5.85,5.85,0,0,0,102.81,64h-1.32a4.8,4.8,0,0,1-.74,1.68L98.87,63.9h0l-.74-.72h0l0,0L98,63.07h0a3.54,3.54,0,0,1-.42-.53,1.2,1.2,0,0,1-.18-.64.73.73,0,0,1,.25-.58,1,1,0,0,1,.68-.22.92.92,0,0,1,.63.21.7.7,0,0,1,.24.56,1,1,0,0,1,0,.18h1.22a1.9,1.9,0,0,0,0-.26,1.52,1.52,0,0,0-.55-1.23,2.3,2.3,0,0,0-1.52-.46,2.48,2.48,0,0,0-1.59.47,1.55,1.55,0,0,0-.59,1.28,2,2,0,0,0,.19.85,4.53,4.53,0,0,0,.71,1,3.65,3.65,0,0,0-1.26,1A2.15,2.15,0,0,0,95.5,66a2,2,0,0,0,.71,1.59,3,3,0,0,0,2,.58,4.17,4.17,0,0,0,1.39-.22,4.12,4.12,0,0,0,1.19-.66l.81.78h1.65Zm-3.34.58a1.5,1.5,0,0,1-1-.33,1.08,1.08,0,0,1-.38-.85,1.25,1.25,0,0,1,.22-.72,2.72,2.72,0,0,1,.8-.68l2.09,2A2.63,2.63,0,0,1,98.25,67.06Z"/><path class="cls-2" d="M98,63.07l.08.08L98,63.07Z"/></svg>